<svg xmlns="http://www.w3.org/2000/svg" viewBox="0 0 69.64 70.4"><defs><style>.cls-1{fill:#efefef;stroke:#78909c;stroke-miterlimit:10;stroke-width:2px;}.cls-2{fill:#78909c;}</style></defs><title>family</title><g id="Layer_2" data-name="Layer 2"><g id="Layer_1-2" data-name="Layer 1"><ellipse class="cls-1" cx="34.82" cy="35.2" rx="34.2" ry="33.82" transform="translate(-0.93 69.46) rotate(-89.09)"/><path class="cls-2" d="M35.47,69.39a6.55,6.55,0,0,1-3.22-.75c-1.86-.65-1.95-4-1.95-4.67v-.49a1.86,1.86,0,0,1,1.6-1.85,13.57,13.57,0,0,0,5.23-1.88l.18-.12-.06-.2a27.08,27.08,0,0,1-1-4.81c-.07-.53-.12-1-.2-1.45a8.55,8.55,0,0,0-.73-2.39,5.18,5.18,0,0,0-3.46-3,9.08,9.08,0,0,0-2.43-.34H29c-2.68.06-4.36,1.1-5.31,3.28a12.19,12.19,0,0,0-.87,3.87,27,27,0,0,1-.9,4.86l-.05.19.16.12a11.63,11.63,0,0,0,4.77,1.84,1.87,1.87,0,0,1,1.57,1.86V64a14.06,14.06,0,0,1-.45,3,1.86,1.86,0,0,1-1.79,1.32,2.05,2.05,0,0,1-.49-.06c-.84-.23-1.7-.5-2.56-.81a33.58,33.58,0,0,1-3.79-1.64l-.07,0c-.5-.25-1-.49-1.4-.75a1.87,1.87,0,0,1-.64-.61,14.72,14.72,0,0,1-2.38-8.05,15,15,0,0,1,.14-2l.09-.7-.55.45a18.9,18.9,0,0,1-4.61,2.69,1.83,1.83,0,0,1-.73.15,1.88,1.88,0,0,1-1.48-.73,34.62,34.62,0,0,1-3.87-6.29A34.29,34.29,0,0,1,6.88,15.26a34.52,34.52,0,0,1,3.88-4.55,34.18,34.18,0,0,1,58,20.83c0,.34.07.7.09,1.06.07.86.1,1.72.1,2.55a34.13,34.13,0,0,1-9.34,23.51c-.31.33-.63.66-1,1a1.9,1.9,0,0,1-1.32.53,1.94,1.94,0,0,1-.71-.13,7.66,7.66,0,0,0-.72-.27,3,3,0,0,1-2.11-2.89V52.43a3,3,0,0,1,3-3H57a14.71,14.71,0,0,0,2.81-.28l.35-.08L60,48.72a13.91,13.91,0,0,1-1-7.49c.5-5-.37-7.93-1.35-9A2,2,0,0,0,56,31.56l-.4,0h-.26a3,3,0,0,1-2.3-1.05,2.93,2.93,0,0,0-2-.7,6,6,0,0,0-2.07.44l-.06,0a5.51,5.51,0,0,0-1.59.83c-2.14,1.69-2.5,5.55-2.43,8.48.09,4-.37,7-1.41,9.16l-.15.32.35.07a14.92,14.92,0,0,0,3,.28h.18a3,3,0,0,1,3.06,3V56.8a3,3,0,0,1-2.1,2.89,12.83,12.83,0,0,0-4.62,2.67l0,0,0,.05A15,15,0,0,1,37,69.12a2,2,0,0,1-.82.25Zm-2.77-2.3a4.12,4.12,0,0,0,2.45.77,5.67,5.67,0,0,0,1-.09h0l0,0a13.42,13.42,0,0,0,5.56-6.28,14.22,14.22,0,0,1,5.49-3.29,1.46,1.46,0,0,0,1-1.37V52.47A1.47,1.47,0,0,0,46.86,51h-.23a13.29,13.29,0,0,1-5.34-.95c0-.08-.21-.38-.25-.46,1.59-1.86,2.34-5.22,2.24-10s.9-8.09,3-9.78a7.11,7.11,0,0,1,2-1.07l.07,0A7.43,7.43,0,0,1,51,28.24a4.32,4.32,0,0,1,3.23,1.24,1.42,1.42,0,0,0,1.11.52h.13L56,30a3.52,3.52,0,0,1,2.8,1.18c1.59,1.76,2.23,5.49,1.75,10.24s.86,7.13,2.16,8.46A14.09,14.09,0,0,1,57,51h-.17a1.45,1.45,0,0,0-1.48,1.44v4.45a1.46,1.46,0,0,0,1,1.37c.28.09.56.19.84.31l.17.07.13-.13.91-.93a32.56,32.56,0,0,0,8.9-22.42c0-.79,0-1.61-.09-2.43q0-.51-.09-1A32.59,32.59,0,0,0,11.88,11.85a33.46,33.46,0,0,0-3.71,4.34,32.77,32.77,0,0,0-2.91,33,32.93,32.93,0,0,0,3.7,6l.13.17.2-.08c5.53-2.32,8.21-5.93,8.21-11a4.83,4.83,0,0,0-1-3.17,9.3,9.3,0,0,1-1.59-4.22,2.56,2.56,0,0,0-1.62-2.07c-.46-.22-.93-.44-1.1-2.76a1.85,1.85,0,0,1,.44-1.45,1.12,1.12,0,0,0,.61-1.21l0-.08c-.06-.31-.27-1.54-.47-2.94-.69-4.25-.69-8.88,4.59-11a14.49,14.49,0,0,1,5.44-1.13c2.53,0,4,.81,4.22,1.15a1.54,1.54,0,0,0,.87.57,1.36,1.36,0,0,0,.27,0h.17a5.64,5.64,0,0,1,4.09,1.73c2,2.37,1.61,8.89,1.09,11.68a1.16,1.16,0,0,0,.58,1.2s.46.31.46,1.42c-.17,2.36-.64,2.58-1.09,2.8a2.6,2.6,0,0,0-1.62,2.08,9.39,9.39,0,0,1-1.6,4.22,4.86,4.86,0,0,0-.93,2A13.22,13.22,0,0,0,18.56,63.47l0,.06.06,0c.45.26.9.5,1.36.73l0,0a33.17,33.17,0,0,0,3.62,1.56c.8.29,1.62.55,2.43.77l.26.07.08-.26A12.62,12.62,0,0,0,26.82,64v-.73l-.24,0a12.2,12.2,0,0,1-6.51-3,25.54,25.54,0,0,0,1.21-5.77,14,14,0,0,1,1-4.32c1.21-2.78,3.4-4.16,6.7-4.24v0h.53a10.91,10.91,0,0,1,2.86.4,6.82,6.82,0,0,1,4.45,3.84,10.15,10.15,0,0,1,.86,2.8c.09.5.15,1,.21,1.52a24.07,24.07,0,0,0,1.2,5.46c0,.1.07.2.11.31a13.71,13.71,0,0,1-7.06,3l-.23,0V64S32.05,66.72,32.7,67.09Zm-10-51.33a13,13,0,0,0-4.83,1c-3.51,1.43-4.49,3.94-3.62,9.28.21,1.46.43,2.7.47,2.92l0,.08a2.72,2.72,0,0,1-.92,2.56l-.09.08s0,.19,0,.24A7.71,7.71,0,0,0,14,33.2l0,.12.12.06a4.15,4.15,0,0,1,2.36,3.15,7.74,7.74,0,0,0,1.34,3.61,6.38,6.38,0,0,1,1.3,4.07c0,.36,0,.71,0,1.06L19,46l.52-.49a14.68,14.68,0,0,1,8.38-3.91l.16,0,.06-.14a8,8,0,0,1,.75-1.28,7.66,7.66,0,0,0,1.35-3.6,4.08,4.08,0,0,1,2.35-3.15l.11-.06,0-.12a9,9,0,0,0,.19-1.3v-.23l-.09-.07a2.79,2.79,0,0,1-.93-2.56c.6-3.19.69-8.72-.72-10.36a4.1,4.1,0,0,0-2.88-1.18H28a3,3,0,0,1-2.22-1.12l0-.05-.05,0A6.63,6.63,0,0,0,22.75,15.76Z"/></g></g></svg>