<svg xmlns="http://www.w3.org/2000/svg" viewBox="0 0 160.56 98.11"><defs><style>.cls-1{fill:#e6e6e6;stroke:#78909c;stroke-miterlimit:10;stroke-width:1.5px;}</style></defs><title>new_old</title><g id="Layer_2" data-name="Layer 2"><g id="Layer_1-2" data-name="Layer 1"><path class="cls-1" d="M159.6,79h0A18.74,18.74,0,0,0,153,77.18a7.79,7.79,0,0,1-2.86-.26c-1.56-.64-2.18-2.48-2.53-4.13a42,42,0,0,0-1.92-7.63c-.54-1.28-1.27-2.49-1.75-3.8-1.58-4.28-.47-9.33-2.36-13.43a1.92,1.92,0,0,0,1.19-.43c.51-.45.61-1.19,1-1.76a4.35,4.35,0,0,1,.66-.7l2.38-2.19a3.45,3.45,0,0,1,.91-.67c.51-.23,1.15-.22,1.57-.6.6-.53.43-1.48.44-2.27,0-1.56.85-3,1.48-4.38a17.54,17.54,0,0,0,1.5-7.36,9.59,9.59,0,0,0-.64-3.56A11.45,11.45,0,0,0,149,20.12a21.79,21.79,0,0,0-6.3-4.29,10.43,10.43,0,0,0-7.47-.39,11.38,11.38,0,0,0-2.32,1.21,14.79,14.79,0,0,0-6.19,8.18,11.59,11.59,0,0,0,.77,8.23,29.22,29.22,0,0,0-3.8,3.35,32.62,32.62,0,0,1-8.1,4.78,58.2,58.2,0,0,1-5.76,2.45c-7.47,2.57-10.06.27-17.22,3.6a13.07,13.07,0,0,0-3.33,2.09A11.55,11.55,0,0,0,85.81,56a20.79,20.79,0,0,0,.26,7.58A8.9,8.9,0,0,0,86.85,66,5.86,5.86,0,0,0,89,68.88a13.94,13.94,0,0,0,3.16,1.91Q89,70.26,85.75,70c-2-.19-4.1-.28-5.68.89a8.17,8.17,0,0,0-1.64,1.78l-5.76,7.62A2.41,2.41,0,0,0,72,81.82a1.61,1.61,0,0,0,1.23,1.29A4.13,4.13,0,0,0,75.11,83a19.22,19.22,0,0,0,5.51-2.11,9.3,9.3,0,0,1,3.62-1.56c1.91-.15,3.59,1.18,5.42,1.76,2.2.7,4.57.31,6.88.29,2.75,0,5.48.48,8.22.31s5.63-1.18,7.13-3.48c1.34-2.06,1.3-4.72.85-7.14a10.09,10.09,0,0,0-1-3.18,14.57,14.57,0,0,0-1.51-2l-.52-.66a84.91,84.91,0,0,0,10.46-2.79,42.74,42.74,0,0,0,4.51-1.66,35.67,35.67,0,0,0,3,11.14c.6,1.26,1.2,2.51,1.91,3.71,1,1.65,1.94,3.68,3.65,4.7,2.28,1.37,5.44.79,8,.86,1.09,0,6.43.88,7.17-.1.19-.24-.16-.54-.44-.65a19.55,19.55,0,0,0-6.27-1.7l.13-.06a2.53,2.53,0,0,0,.81-.47.85.85,0,0,0,.25-.86,17.09,17.09,0,0,0-4.09.39l-1.17.21a6.74,6.74,0,0,1-1.71-3.54,41.92,41.92,0,0,0-2-7.6c-.56-1.28-1.06-1.39-1.2-2.77-.27-2.76.48-5.53.94-8.28l.33-.23a91.55,91.55,0,0,0,5.57,14.61c.58,1.27,1.17,2.53,1.85,3.74a27,27,0,0,0,3.05,4.3,5,5,0,0,0,.94.9,5.78,5.78,0,0,0,1.23.58q3.08,1.14,6.17,2.24c.42.14.93,0,.36-.66l-1.94-1.57c2.78.06,5.57,0,8.35,0A.35.35,0,0,0,159.6,79Z"/><path class="cls-1" d="M46.31,29.71Q45.5,27,44.58,24.39a5.8,5.8,0,0,0-1-2A8,8,0,0,0,41.83,21a24.72,24.72,0,0,0-2.73-1.5.94.94,0,0,0-.28-.42,3.13,3.13,0,0,0-1-.5L28.72,15.5c0-.51-.07-1-.11-1.45l.5-.29a2.5,2.5,0,0,0,1.27-1.59l.28-1.37a8.66,8.66,0,0,1,.87-.44,6.23,6.23,0,0,0,1.11-1.64,1.81,1.81,0,0,0-.51-1.39.94.94,0,0,0-.89,0,4.9,4.9,0,0,0,.08-3.74.53.53,0,0,0-.14-.24.52.52,0,0,0-.28-.13,2.7,2.7,0,0,0-.63-.12C29.06,1.24,26.84.75,24.8.75S20.62,1.22,19.4,3c-.34-.13-.9-.09-1.07.18a1.48,1.48,0,0,0-.17.41A4.71,4.71,0,0,0,18,5.4a6.59,6.59,0,0,0,.42,1.52l.07.22a1.15,1.15,0,0,1,0,.19s-.63-.3-1,0A1.86,1.86,0,0,0,17,8.72a6.49,6.49,0,0,0,1.12,1.64,8.66,8.66,0,0,1,.87.44l.28,1.37a2.5,2.5,0,0,0,1.27,1.59l.53.31c0,.44-.07.93-.11,1.43l-9.07,3.09a3.2,3.2,0,0,0-1,.48,31.11,31.11,0,0,0-3.24,1.54,8.6,8.6,0,0,0-1.88,1.27,6.37,6.37,0,0,0-1.24,1.95Q3.29,26.42,2.17,29a6.17,6.17,0,0,0-.71,3l.45.08c-.11.24-.2.49-.3.73a8.8,8.8,0,0,0-.85,3.72A2.89,2.89,0,0,0,1.22,38a5.58,5.58,0,0,0,1.19,1.07c.61.45,1.19.93,1.76,1.43V46.8c0,.38.44.68,1,.68h.56c.54,0,1-.3,1-.68V43.05a10.36,10.36,0,0,0,1,1V96.78c0,.26.31.48.68.48H9.51c.38,0,.69-.22.69-.48V45a2.48,2.48,0,0,0,1.22-.64c0,.55,0,1.1,0,1.66a1,1,0,0,0,.19.69,1.92,1.92,0,0,0,.66.39l.77.32-.79,2.4A12.83,12.83,0,0,0,11.49,53a12.53,12.53,0,0,0,.27,3l1.89,11.22a12.49,12.49,0,0,1,.26,2.5c-.05,1.17-.43,2.33-.57,3.49-.66,5.49,3.95,11.16,1.39,16.4-.34.68-.72,1.53.39,2a4.54,4.54,0,0,1-.21.45,10.13,10.13,0,0,1-2,2c-.72.66-1.29,1.47-1,2.26a1.3,1.3,0,0,0,.63.67,4.35,4.35,0,0,0,1.61.28c1.21,0,2.42.06,3.62.06a4.18,4.18,0,0,0,2-.33,1.58,1.58,0,0,0,.59-.62,7.25,7.25,0,0,0,.75-2.26c.14-.61.27-1.22.4-1.83A3.65,3.65,0,0,0,24.36,92a6.78,6.78,0,0,1,.81-.4q-1.32-10.94-1.68-21.89A20.41,20.41,0,0,1,23.72,65a64,64,0,0,1,2-6.09c.68,2,1.74,4,2.21,6.12a21,21,0,0,1,.35,4.75q0,10.95-1.08,21.87a9,9,0,0,1,.82.41,3.48,3.48,0,0,0,1.65.42l.4,1.66a7.9,7.9,0,0,0,.82,2.26,1.71,1.71,0,0,0,.6.63,4.26,4.26,0,0,0,2,.35c1.21,0,2.41,0,3.62,0a4.08,4.08,0,0,0,1.6-.25,1.18,1.18,0,0,0,.62-.67c.29-.78-.31-1.6-1-2.27a10.59,10.59,0,0,1-2.07-2c0-.09-.1-.18-.14-.27a4,4,0,0,0,.78-.07c1.54-.36,1.09-1.32.7-2.06-2.71-5.27,1.74-10.89.94-16.38-.18-1.17-.59-2.33-.66-3.51a11.61,11.61,0,0,1,.18-2.49l1.59-11.2a13,13,0,0,0,.19-3A14.1,14.1,0,0,0,39,49.94L38,47l-.08-.21a.55.55,0,0,0,.14-.12,1,1,0,0,0,.19-.69l0-3.24a36.32,36.32,0,0,1,4.1-2,6.79,6.79,0,0,0,1.56-.81,3.55,3.55,0,0,0,1-1.34,8.58,8.58,0,0,0,.63-3.74A7.67,7.67,0,0,0,45.42,33a5.8,5.8,0,0,1,1.28-.24A5.93,5.93,0,0,0,46.31,29.71ZM10.5,37c-1.2,0-2.85.64-3.47-.68a3.48,3.48,0,0,1-.27-1.23,4.46,4.46,0,0,1,0-.62,6.93,6.93,0,0,0,1.06.35A13.54,13.54,0,0,1,11,30.1c.11,2.34.19,4.68.26,7A2.76,2.76,0,0,0,10.5,37ZM39,37.16a1.81,1.81,0,0,1-.63.44c.06-1.94.12-3.88.2-5.82a17.43,17.43,0,0,1,1.52,3.4,4.77,4.77,0,0,1-.34.84A4.59,4.59,0,0,1,39,37.16Z"/></g></g></svg>