<svg xmlns="http://www.w3.org/2000/svg" viewBox="0 0 67.91 67.91"><defs><style>.cls-1{fill:#78909c;}.cls-2,.cls-4{fill:#efefef;}.cls-3{fill:#e0e0e0;}.cls-4{stroke:#78909c;stroke-linecap:round;stroke-miterlimit:10;stroke-width:1.5px;}</style></defs><title>question</title><g id="Layer_2" data-name="Layer 2"><g id="Layer_1-2" data-name="Layer 1"><path class="cls-1" d="M64.32,61.74a5.15,5.15,0,0,1,0-5.33A24.21,24.21,0,0,0,48.17,19.92,24.23,24.23,0,0,0,40.94,6.66,24.24,24.24,0,0,0,3.65,37a5.15,5.15,0,0,1,0,5.33L1.4,46.09A1.63,1.63,0,0,0,2,48.31a1.68,1.68,0,0,0,.82.22H20A24.77,24.77,0,0,0,44.2,67.91H65.13a1.62,1.62,0,0,0,1.39-2.44ZM5.62,45.3,6.39,44a8.39,8.39,0,0,0,0-8.67,21,21,0,1,1,38.87-10.7A21.39,21.39,0,0,1,23.66,45.3ZM44.26,64.68a21.55,21.55,0,0,1-21-16.15h.39A24.64,24.64,0,0,0,48.49,24.66v-1.4A21,21,0,0,1,61.57,54.7a8.39,8.39,0,0,0,0,8.67l.78,1.31Z"/><path class="cls-2" d="M62.9,55.56A22.59,22.59,0,0,0,46.65,21.31a21.88,21.88,0,0,1,.23,3.34A23,23,0,0,1,23.66,46.92H21.3a23.12,23.12,0,0,0,23,19.38H65.13l-2.2-3.73A6.79,6.79,0,0,1,62.9,55.56Z"/><path class="cls-3" d="M5,36.18A22.61,22.61,0,1,1,46.88,24.65,23,23,0,0,1,23.66,46.92H2.79L5,43.19A6.79,6.79,0,0,0,5,36.18Z"/><path class="cls-4" d="M49.57,52.71a7,7,0,0,0-2-5C46,45.91,44,44,44,40.78s2.44-6.28,7.86-6.28a13.61,13.61,0,0,1,6.8,1.63l-1.38,4.48a7.82,7.82,0,0,0-4.16-1.22c-1.95,0-2.89,1-2.89,2.36s1.1,2.73,2.41,4.32A8.48,8.48,0,0,1,55,52.43l0,1.06H49.57Zm2.86,3.51a2.93,2.93,0,1,1-2.87,3A2.76,2.76,0,0,1,52.43,56.22Z"/></g></g></svg>